# xmcd CD database file
#
# Track frame offsets:
#	150
#	7365
#	21435
#	35345
#	51985
#	67315
#	79725
#	96075
#	102630
#	116925
#	132395
#	137085
#	145745
#	157060
#	172915
#
# Disc length: 2534 seconds
#
# Revision: 3
# Processed by: cddbd v1.5PL3 Copyright (c) Steve Scherf et al.
# Submitted via: CDex 1.50beta10
#
DISCID=e309e40f
DTITLE=Lightnin' Hopkins - The Tradition Masters - (Disk 2)
DYEAR=2002
DGENRE=Blues
TTITLE0=Long Time
TTITLE1=Rainy Day Blues
TTITLE2=Baby!
TTITLE3=Long Gone Like A Turkey Through The Corn
TTITLE4=Prison Blues Come Down On Me
TTITLE5=Backwater Blues (This Mean Old Twister)
TTITLE6=Gonna Pull A Party
TTITLE7=Bluebird, Bluebird
TTITLE8=See See Rider
TTITLE9=Worrying My Mind
TTITLE10=Till The Gin Gets Here
TTITLE11=Bunion Stew
TTITLE12=You Got To Work To Get Your Pay
TTITLE13=Go Down Old Hannah
TTITLE14=Hear My Black Dog Bark
EXTD=YEAR: 2002
EXTT0=
EXTT1=
EXTT2=
EXTT3=
EXTT4=
EXTT5=
EXTT6=
EXTT7=
EXTT8=
EXTT9=
EXTT10=
EXTT11=
EXTT12=
EXTT13=
EXTT14=
PLAYORDER=
